<svg xmlns="http://www.w3.org/2000/svg" viewBox="0 0 48 40" fill="none">
  <!-- BP Monogram for favicon -->
  <path d="M0 0h14c5.5 0 10 2.5 10 7.5 0 3-1.5 5-4 6.2 3 1 5.2 3.5 5.2 7.3 0 5.5-4.5 8.5-10.5 8.5H0V0zm8 11.5h5c2.2 0 3.5-1.2 3.5-3.2s-1.3-3-3.5-3H8v6.2zm0 12.5h6.2c2.5 0 4-1.4 4-3.5s-1.5-3.5-4-3.5H8V24z" fill="#0F172A"/>
  <path d="M22 0h14c7 0 11.5 4.5 11.5 11S43 22 36 22h-6v7.5h-8V0zm8 15.5h5c2.8 0 4.5-2 4.5-4.5s-1.7-4.5-4.5-4.5h-5v9z" fill="#0F172A"/>
  <rect x="30" y="-2" width="4.5" height="36" rx="2" transform="rotate(20 32 16)" fill="#F97316"/>
</svg>
